<?xml version="1.0" encoding="UTF-8"?>
<svg version="1.1" xmlns="http://www.w3.org/2000/svg" width="512" height="512">
<path d="M0 0 C1.38655289 -0.01226624 1.38655289 -0.01226624 2.80111694 -0.02478027 C5.8467343 -0.04950468 8.89230558 -0.06611395 11.93798828 -0.08056641 C13.5034458 -0.08855192 13.5034458 -0.08855192 15.10052872 -0.09669876 C20.62104811 -0.12336965 26.14154533 -0.14276681 31.66210938 -0.15722656 C36.22285962 -0.17057971 40.78316394 -0.19846691 45.34375 -0.23925781 C50.86204508 -0.28860478 56.37993502 -0.31334933 61.89844131 -0.32045364 C63.9963537 -0.32715782 66.09425733 -0.34235808 68.1920433 -0.36634445 C71.13111085 -0.39804276 74.06861816 -0.39802602 77.0078125 -0.390625 C77.86729492 -0.40703033 78.72677734 -0.42343567 79.61230469 -0.44033813 C86.46528706 -0.36996725 91.14919351 1.90836846 96.1262188 6.60025978 C101.65562268 12.74994641 103.08373971 18.77511249 103.05322266 26.72338867 C103.0616922 27.547155 103.07016174 28.37092133 103.07888794 29.21965027 C103.10216487 31.92572748 103.1032822 34.63123285 103.10205078 37.33740234 C103.10915887 39.23158492 103.11685882 41.12576535 103.12512207 43.01994324 C103.1385462 46.9849547 103.14014535 50.94976714 103.13427734 54.91479492 C103.12838865 59.97531903 103.15894815 65.03488131 103.19939423 70.09521961 C103.22535089 74.00653657 103.22814133 77.91762453 103.22450256 81.82901573 C103.22618691 83.69359437 103.23576289 85.55818437 103.25364685 87.42267799 C103.34934423 98.63415847 103.41012864 107.92375704 95.38720703 116.63037109 C94.66404297 117.14599609 93.94087891 117.66162109 93.19580078 118.19287109 C92.47521484 118.72912109 91.75462891 119.26537109 91.01220703 119.81787109 C84.24306776 123.73041136 77.6923413 123.48752509 70.07861328 123.50146484 C67.58251718 123.52662289 65.08642348 123.55202095 62.59033203 123.57763672 C58.67123021 123.60637058 54.75217016 123.63040045 50.83300781 123.64916992 C47.0396589 123.67087209 43.24679385 123.71031272 39.45361328 123.75146484 C38.28879425 123.75158066 37.12397522 123.75169647 35.92385864 123.7518158 C29.52144261 123.8293685 24.35298343 124.17203256 18.63330078 127.19287109 C17.61648284 129.90642889 17.49017879 132.53166042 17.42797852 135.41064453 C17.40803329 136.23119324 17.38808807 137.05174194 17.36753845 137.89715576 C17.35082596 138.77333557 17.33411346 139.64951538 17.31689453 140.55224609 C17.28572289 141.90881317 17.28572289 141.90881317 17.25392151 143.29278564 C17.18864138 146.17607165 17.12964127 149.05944719 17.07080078 151.94287109 C17.02759508 153.89991153 16.98398013 155.85694298 16.93994141 157.81396484 C16.83298206 162.60684229 16.73165405 167.39980963 16.63330078 172.19287109 C17.36277924 172.18620926 18.09225769 172.17954742 18.84384155 172.17268372 C25.75726365 172.11228496 32.67064572 172.06675157 39.58426476 172.03743458 C43.13767229 172.02185507 46.69085972 172.00076038 50.24414062 171.96655273 C54.3400266 171.92737334 58.43568553 171.91309825 62.53173828 171.89990234 C63.79255219 171.88441849 65.05336609 171.86893463 66.35238647 171.85298157 C75.98630831 171.85116316 84.99895916 172.80132927 92.63330078 179.19287109 C98.27115342 185.77298322 99.93282772 191.5042141 99.93969727 200.04711914 C99.94802078 200.92911484 99.9563443 201.81111053 99.96492004 202.71983337 C99.98898494 205.63146402 99.99778905 208.54287033 100.00439453 211.45458984 C100.0133654 213.48615077 100.02248733 215.51771103 100.03175354 217.54927063 C100.04823788 221.80866092 100.05594232 226.06797267 100.05883789 230.32739258 C100.06421291 235.76680924 100.10185928 241.20548018 100.14758205 246.6446867 C100.17743232 250.84250025 100.18456322 255.04013622 100.18556404 259.23804665 C100.18975256 261.24218972 100.20213149 263.24633399 100.22308159 265.25037193 C100.43210555 286.97948079 100.43210555 286.97948079 92.87767029 295.07402039 C84.88276969 302.75779432 76.51315444 302.60820642 65.94970703 302.48583984 C64.52482044 302.48023691 63.09992803 302.47597011 61.67503357 302.47297668 C57.94475031 302.46158263 54.21482362 302.43216335 50.48468018 302.39886475 C46.67033713 302.36804568 42.85593586 302.35444619 39.04150391 302.33935547 C31.57194121 302.30728753 24.10267117 302.25615828 16.63330078 302.19287109 C16.63606616 303.15347663 16.63883154 304.11408216 16.64168072 305.10379696 C16.70831434 328.49018713 16.75759467 351.87656497 16.7887373 375.26303005 C16.80419839 386.57260451 16.82527348 397.88211621 16.85961914 409.19165039 C16.88954463 419.05039372 16.9088813 428.90909158 16.91556627 438.76787907 C16.91947317 443.98679899 16.92863927 449.20558888 16.95049095 454.42446709 C16.97090579 459.34016986 16.97712446 464.25568945 16.97262383 469.17143059 C16.97344679 470.97211198 16.97938257 472.77279973 16.99091721 474.57344437 C17.06648896 486.98311557 16.78269731 497.79163587 7.63330078 507.19287109 C-1.23470212 514.38799754 -13.04117919 512.91798707 -23.77294922 512.85693359 C-25.86462688 512.86030694 -27.95630263 512.86516386 -30.04797363 512.87142944 C-34.41889215 512.87877624 -38.78929766 512.86816592 -43.16015625 512.84472656 C-48.74189343 512.81624053 -54.32242825 512.83265625 -59.9041214 512.86258888 C-64.2195123 512.88072109 -68.53462164 512.87487666 -72.85002136 512.86194992 C-74.90716192 512.85863228 -76.96432866 512.8626447 -79.0214386 512.87434769 C-100.89298409 512.97149181 -100.89298409 512.97149181 -109.80419922 505.01708984 C-110.31982422 504.31197266 -110.83544922 503.60685547 -111.36669922 502.88037109 C-111.90294922 502.18298828 -112.43919922 501.48560547 -112.99169922 500.76708984 C-116.14435953 494.86480819 -116.66136476 488.67712999 -116.60720825 482.09362793 C-116.6089171 481.31908469 -116.61062595 480.54454144 -116.61238658 479.74652719 C-116.61565853 477.17320659 -116.60471599 474.60015171 -116.59375 472.02685547 C-116.59318539 470.17348232 -116.59350342 468.32010873 -116.59463501 466.46673584 C-116.59520757 461.45080116 -116.58346881 456.43496261 -116.56948709 451.41905022 C-116.55696371 446.17133957 -116.55580797 440.9236266 -116.55343628 435.67590332 C-116.54722624 425.74551132 -116.53082185 415.81516348 -116.5107373 405.8847909 C-116.4883635 394.57648331 -116.47738114 383.26817358 -116.46734643 371.95984936 C-116.44645522 348.70416547 -116.41128848 325.44852076 -116.36669922 302.19287109 C-117.00848114 302.20397415 -117.65026306 302.21507721 -118.31149292 302.22651672 C-125.02799476 302.3376581 -131.74423281 302.41276481 -138.46142578 302.4675293 C-140.96381248 302.49257902 -143.4661267 302.52662852 -145.96826172 302.57006836 C-149.57781928 302.63113771 -153.18640441 302.65917783 -156.79638672 302.68115234 C-157.90408417 302.70695877 -159.01178162 302.7327652 -160.15304565 302.75935364 C-168.70866805 302.76240083 -175.21790106 300.70339261 -181.80419922 295.13037109 C-188.24229729 287.14712948 -189.51829779 280.34623805 -189.51196289 270.12719727 C-189.5153215 269.34098495 -189.51868011 268.55477264 -189.5221405 267.74473572 C-189.53160055 265.1584208 -189.53359117 262.57217097 -189.53466797 259.98583984 C-189.53788415 258.1775154 -189.54124849 256.36919122 -189.54475403 254.56086731 C-189.55073305 250.77405189 -189.55259521 246.98725926 -189.55200195 243.20043945 C-189.55190044 238.3654315 -189.56554708 233.53057076 -189.58277416 228.69559765 C-189.59393288 224.96107827 -189.59591997 221.22659404 -189.59539223 217.49205971 C-189.59656672 215.71040655 -189.60095848 213.92875232 -189.60872459 212.14711571 C-189.61860231 209.64688398 -189.61561598 207.14696609 -189.60961914 204.64672852 C-189.61523865 203.92175171 -189.62085815 203.1967749 -189.62664795 202.4498291 C-189.57083894 193.22043906 -187.8109715 185.97787501 -181.36669922 179.19287109 C-173.61948506 172.04438777 -164.7192265 171.89877334 -154.64794922 171.99755859 C-153.54946655 172.00038849 -152.45098389 172.00321838 -151.31921387 172.00613403 C-147.83492822 172.01726623 -144.35090626 172.04235811 -140.86669922 172.06787109 C-138.49430712 172.07790988 -136.12191096 172.08703416 -133.74951172 172.09521484 C-127.95515198 172.11718276 -122.16094445 172.15059063 -116.36669922 172.19287109 C-116.37114044 171.63593567 -116.37558167 171.07900024 -116.38015747 170.50518799 C-116.42512806 164.59804915 -116.45486375 158.69096046 -116.4765625 152.78369141 C-116.4864915 150.592265 -116.50003915 148.40085137 -116.51757812 146.20947266 C-116.65303766 128.82284259 -116.78271715 110.98104379 -112.17919922 94.06787109 C-111.85773926 92.84741089 -111.85773926 92.84741089 -111.52978516 91.60229492 C-106.34557163 72.66011729 -98.21824184 56.11307249 -85.36669922 41.19287109 C-84.77759766 40.45939453 -84.18849609 39.72591797 -83.58154297 38.97021484 C-64.06771294 15.47904366 -30.42870775 0.15011013 0 0 Z M-60.2590332 58.61401367 C-64.73487237 63.37367555 -68.22509559 68.46041411 -71.36669922 74.19287109 C-71.96095703 75.23830078 -72.55521484 76.28373047 -73.16748047 77.36083984 C-76.62436366 83.79345546 -79.1890916 90.12130547 -81.17919922 97.13037109 C-81.47141357 98.14756226 -81.47141357 98.14756226 -81.76953125 99.18530273 C-84.9041172 111.04839871 -85.65519444 123.15928862 -85.67165947 135.37394905 C-85.67540528 137.6074941 -85.6923386 139.84062644 -85.7124176 142.07408142 C-85.76712067 148.41071926 -85.79865277 154.74740821 -85.82299805 161.08422852 C-85.83889841 164.99201965 -85.8691111 168.89949819 -85.90776253 172.807127 C-85.9193564 174.28420126 -85.92534238 175.76133125 -85.92544365 177.238451 C-85.92563645 179.29789125 -85.9439461 181.35646632 -85.96606445 183.41577148 C-85.9711351 184.58298233 -85.97620575 185.75019318 -85.98143005 186.95277405 C-86.49244744 191.25040821 -87.93790807 194.62640996 -90.86669922 197.83740234 C-95.48301699 201.43187894 -98.44950078 202.31358307 -104.21508789 202.39819336 C-105.4328894 202.41837524 -106.65069092 202.43855713 -107.90539551 202.45935059 C-109.18555542 202.47582642 -110.46571533 202.49230225 -111.78466797 202.50927734 C-112.96113892 202.52792847 -114.13760986 202.54657959 -115.34973145 202.5657959 C-119.75114315 202.63417641 -124.15268041 202.6942722 -128.55419922 202.75537109 C-143.31138672 202.97193359 -143.31138672 202.97193359 -158.36669922 203.19287109 C-158.36669922 225.63287109 -158.36669922 248.07287109 -158.36669922 271.19287109 C-140.013462 271.4026416 -140.013462 271.4026416 -121.65991211 271.58081055 C-119.34471042 271.61312083 -117.02952325 271.64649741 -114.71435547 271.68115234 C-112.93732239 271.69051819 -112.93732239 271.69051819 -111.12438965 271.70007324 C-95.67800172 271.96647379 -95.67800172 271.96647379 -89.92919922 277.56787109 C-86.78743325 282.84603792 -86.07254655 287.1789366 -86.08822632 293.27302551 C-86.08243392 294.08175745 -86.07664151 294.89048939 -86.07067358 295.72372836 C-86.05368307 298.43068691 -86.0507979 301.13747487 -86.04785156 303.84448242 C-86.03855274 305.7860862 -86.02838413 307.72768597 -86.01741028 309.66928101 C-85.99009113 314.93946951 -85.97495515 320.20963126 -85.96198225 325.47987199 C-85.94636013 330.98788923 -85.91956697 336.49585176 -85.89395142 342.00382996 C-85.84714739 352.43364525 -85.81041111 362.86347082 -85.77727854 373.29333752 C-85.73906866 385.16750562 -85.68965551 397.0416188 -85.63929439 408.91574061 C-85.53595033 433.34141528 -85.44817693 457.76711302 -85.36669922 482.19287109 C-61.93669922 482.19287109 -38.50669922 482.19287109 -14.36669922 482.19287109 C-14.35268066 473.30414063 -14.35268066 473.30414063 -14.33837891 464.23583984 C-14.3046372 444.67400874 -14.24930526 425.11228296 -14.18279648 405.55053711 C-14.14299428 393.68831151 -14.11060774 381.82615236 -14.09570312 369.96386719 C-14.08269279 359.62419238 -14.05574376 349.28466372 -14.01208615 338.94507122 C-13.98945762 333.47077378 -13.97378938 327.99665671 -13.97481537 322.52230835 C-13.97556114 317.36764383 -13.9576431 312.21337822 -13.92553139 307.05881691 C-13.91702626 305.16905347 -13.91528662 303.27924531 -13.92089653 301.38947105 C-13.92754875 298.80377974 -13.90958733 296.21935311 -13.88568115 293.63378906 C-13.89344157 292.89057498 -13.90120199 292.1473609 -13.90919757 291.38162518 C-13.82099301 285.97144867 -12.41220596 281.69683586 -9.36669922 277.19287109 C-3.71738712 272.50514403 1.21007842 272.08168947 8.35131836 271.98754883 C9.00553772 271.97764923 9.65975708 271.96774963 10.33380127 271.95755005 C12.48177556 271.92613195 14.62977191 271.90125617 16.77783203 271.87646484 C18.27284803 271.85587827 19.76785843 271.83488136 21.26286316 271.81349182 C25.18695527 271.75844694 29.11109836 271.70896056 33.03527832 271.66064453 C37.04390979 271.61030065 41.05246772 271.55468202 45.06103516 271.49951172 C52.91839475 271.39214541 60.7758161 271.29065317 68.63330078 271.19287109 C68.77817113 264.24101584 68.9202577 257.2891074 69.06054688 250.3371582 C69.10843151 247.97972369 69.15691796 245.62230132 69.20605469 243.26489258 C69.27719796 239.84638557 69.3460649 236.42783851 69.41455078 233.00927734 C69.43642456 231.98145645 69.45829834 230.95363556 69.48083496 229.89466858 C69.65558573 220.99358698 69.65424912 212.09521039 69.63330078 203.19287109 C68.75713104 203.18700485 67.8809613 203.18113861 66.97824097 203.1750946 C58.70945804 203.11712129 50.4409439 203.04501793 42.17242241 202.95715618 C37.92177105 202.91248389 33.67121484 202.87322096 29.42041016 202.84643555 C25.31590426 202.82037104 21.21176513 202.77994671 17.10748672 202.72968483 C15.54390154 202.71303732 13.98025295 202.70150987 12.41659164 202.69525719 C10.22134976 202.68559271 8.02704166 202.65750753 5.83203125 202.62524414 C3.96005569 202.60858955 3.96005569 202.60858955 2.05026245 202.59159851 C-2.34013659 202.07928007 -5.72935924 200.68631183 -9.01123047 197.69287109 C-12.52063082 193.18581513 -13.48934404 190.29094925 -13.52783203 184.65844727 C-13.53743958 183.52263718 -13.54704712 182.38682709 -13.5569458 181.21659851 C-13.56332062 179.36987297 -13.56332062 179.36987297 -13.56982422 177.48583984 C-13.57552429 176.21372147 -13.58122437 174.94160309 -13.58709717 173.63093567 C-13.59655689 170.92994619 -13.6034473 168.229068 -13.60693359 165.52807617 C-13.61236684 162.10694184 -13.63628152 158.68621597 -13.66490555 155.26520824 C-13.6883167 151.96376233 -13.69000268 148.6623642 -13.69482422 145.36083984 C-13.70717102 144.15195602 -13.71951782 142.9430722 -13.73223877 141.69755554 C-13.69694385 127.93188663 -11.68256049 114.88538807 -2.17919922 104.44287109 C11.84297526 91.49932542 32.80431024 92.7116757 50.63330078 92.50537109 C61.02830078 92.35068359 61.02830078 92.35068359 71.63330078 92.19287109 C71.63330078 71.73287109 71.63330078 51.27287109 71.63330078 30.19287109 C59.5162813 29.32398196 59.5162813 29.32398196 47.41455078 29.02490234 C46.51657272 29.02066757 45.61859467 29.0164328 44.69340515 29.0120697 C41.83998743 29.00233108 38.98673189 29.00212128 36.13330078 29.00537109 C34.6687999 29.00627747 34.6687999 29.00627747 33.17471313 29.00720215 C-1.87565336 29.06619194 -34.45008579 32.31504923 -60.2590332 58.61401367 Z " fill="#FFFFFF" transform="translate(299.36669921875,-0.19287109375)"/>
</svg>
