<?xml version="1.0" encoding="UTF-8"?>
<svg version="1.1" xmlns="http://www.w3.org/2000/svg" width="512" height="512">
<path d="M0 0 C2.88456017 -0.00071897 5.76911581 -0.00286901 8.65367484 -0.00549722 C18.78070026 -0.01470532 28.90771266 -0.01883805 39.03474212 -0.01804566 C48.37082876 -0.0174469 57.70685726 -0.02797094 67.04292923 -0.04378933 C75.14318735 -0.05700874 83.24342681 -0.06222359 91.34369558 -0.06159025 C96.14383173 -0.06133934 100.94391612 -0.06395819 105.7440412 -0.0747683 C123.85779955 -0.11265849 141.92487417 -0.0307295 160.01032805 1.07228637 C161.97075278 1.19179389 161.97075278 1.19179389 163.97078204 1.3137157 C205.5912554 4.13745499 244.21292737 17.61300205 272.71076751 49.16725707 C301.08050657 82.2938557 307.86797975 123.98650082 307.85603118 166.29982543 C307.85902778 168.4251312 307.86243145 170.55043643 307.86620879 172.67574096 C307.87500432 178.42212781 307.87738509 184.16849974 307.87802458 189.91489267 C307.87873787 193.51524151 307.88087751 197.11558661 307.8835218 200.71593451 C307.89276214 213.3059123 307.89685853 225.89587953 307.89607024 238.48586059 C307.89547055 250.17251048 307.90600446 261.85911405 307.92181391 273.54575223 C307.93494729 283.61757884 307.94025168 293.68939043 307.93961483 303.76122552 C307.93936145 309.75943425 307.94212347 315.75760181 307.95279288 321.75580192 C307.96257139 327.40709356 307.9624872 333.05830553 307.95527625 338.70960021 C307.95424225 340.76647664 307.95652144 342.8233583 307.96263671 344.8802259 C308.00979424 361.86191346 307.33011274 378.96117627 304.02326751 395.66725707 C303.85665618 396.51634643 303.69004485 397.36543578 303.5183847 398.24025512 C297.91379953 425.13880428 285.91245059 447.73511056 267.71076751 468.16725707 C267.1165097 468.83499145 266.52225188 469.50272582 265.90998626 470.19069457 C238.80950559 498.83785279 199.11187989 508.88757462 161.15217376 511.23268676 C160.44739331 511.27632842 159.74261287 511.31997007 159.01647544 511.36493421 C140.72035162 512.46452551 122.42714891 512.46177363 104.1042726 512.43590808 C99.25117848 512.4307207 94.39809057 512.43557382 89.54499602 512.43868041 C81.40655418 512.44228401 73.26814904 512.43761725 65.12971282 512.42799926 C55.82008872 512.41712181 46.51055234 512.42064997 37.20093036 512.43165207 C29.1004457 512.44082937 20.9999869 512.44196006 12.8994987 512.43677473 C8.10847522 512.43371151 3.31749246 512.43308445 -1.47352815 512.43984771 C-19.52894242 512.46178674 -37.53938325 512.35846261 -55.56657624 511.26393676 C-56.87260301 511.18492251 -58.17862977 511.10590827 -59.5242331 511.02449965 C-95.85740075 508.57135487 -130.13540802 498.20931295 -157.28923249 473.16725707 C-158.23540437 472.3035852 -159.18157624 471.43991332 -160.15641999 470.55006957 C-194.23586635 438.01530067 -202.25095401 391.90938307 -203.3469162 346.79262996 C-203.43515509 341.36653793 -203.43638741 335.94061009 -203.43449616 330.51393676 C-203.43750044 328.75012176 -203.4409058 326.98630742 -203.44467378 325.22249389 C-203.45339245 320.4944041 -203.45584678 315.76633248 -203.45648956 311.03823543 C-203.45720741 308.06357366 -203.45935544 305.08891632 -203.46198678 302.11425567 C-203.4712025 291.67716729 -203.47532672 281.24009157 -203.47453523 270.80299926 C-203.47393656 261.17155582 -203.48445677 251.54016877 -203.50027889 241.90873957 C-203.51348829 233.56140577 -203.51871354 225.21409008 -203.51807982 216.86674595 C-203.51782858 211.91626484 -203.52046656 206.96583387 -203.53125787 202.01536345 C-203.6423903 147.1289489 -203.73253777 88.93677221 -164.28923249 46.16725707 C-163.42556062 45.2210852 -162.56188874 44.27491332 -161.67204499 43.30006957 C-137.79410072 18.28845435 -105.55459998 6.59099493 -71.85173249 2.41725707 C-70.92562165 2.30164428 -69.99951081 2.18603148 -69.04533601 2.06691527 C-46.1535538 -0.49129238 -22.99649402 0.00323128 0 0 Z M-131.58220124 80.09303832 C-161.34456281 112.84116508 -156.4505745 164.43238813 -156.45648956 205.34545016 C-156.45720844 208.14842776 -156.45935831 210.9514007 -156.46198678 213.75437713 C-156.47119678 223.59610841 -156.47532746 233.4378263 -156.47453523 243.27956176 C-156.47393673 252.35035488 -156.48445502 261.4210881 -156.50027889 270.49186611 C-156.51350392 278.36280668 -156.51871291 286.23372804 -156.51807982 294.10467958 C-156.51782902 298.76845633 -156.52044077 303.43217978 -156.53125787 308.09594512 C-156.56964628 325.91617766 -156.46260678 343.68625918 -155.3842032 361.47878051 C-155.32427613 362.48728678 -155.32427613 362.48728678 -155.26313841 363.51616693 C-153.45478258 393.0664726 -145.99811001 419.29559398 -124.10173249 440.35475707 C-104.10230679 457.95201712 -77.48902802 463.37143789 -51.60563874 464.68288207 C-50.77968705 464.72505355 -49.95373536 464.76722503 -49.10275483 464.81067443 C-39.60595678 465.27545335 -30.10754388 465.53677089 -20.60173249 465.72975707 C-19.59054353 465.75060363 -18.57935456 465.77145019 -17.53752351 465.79292846 C114.18441357 477.93723607 114.18441357 477.93723607 231.71076751 438.16725707 C257.53466634 413.33953238 261.08253593 378.10999592 261.80271697 344.11388183 C262.00609554 333.49953176 262.12252692 322.88375445 262.24299407 312.26820922 C262.28307704 308.82446829 262.32723043 305.38078479 262.37141585 301.93709445 C262.77037801 270.72730845 262.75994181 239.53280603 262.3933847 208.32277465 C262.35392227 204.92924988 262.3192836 201.53572852 262.28889251 198.14211059 C263.03784461 131.13460405 263.03784461 131.13460405 231.71076751 74.16725707 C228.54904935 71.2025307 225.27714074 68.62663678 221.71076751 66.16725707 C220.86772063 65.57557738 220.02467376 64.9838977 219.15608001 64.37428832 C184.92792014 42.4120271 137.65203434 47.00216953 98.82402015 47.03293157 C94.51881265 47.03551692 90.21360696 47.03310087 85.90839934 47.0315454 C78.68740742 47.02974131 71.46642582 47.03208321 64.24543548 47.03688598 C55.9736437 47.04232515 47.7018766 47.04056123 39.43008542 47.03505957 C32.24534802 47.03047767 25.06061792 47.0299024 17.87587953 47.03249824 C13.62098356 47.03403344 9.36609907 47.03433275 5.11120391 47.03096175 C-69.09559385 45.05025707 -69.09559385 45.05025707 -131.58220124 80.09303832 Z " fill="#FFFFFF" transform="translate(204.2892324924469,-0.16725707054138184)"/>
<path d="M0 0 C10.09266418 9.33045777 18.25068829 19.7219773 24.9375 31.75 C25.27378418 32.34619141 25.61006836 32.94238281 25.95654297 33.55664062 C42.07058116 62.46956965 46.23975791 97.20872373 38.1875 129.25 C27.81492939 165.45901024 5.38982182 195.09529435 -27.67578125 213.48632812 C-58.37945962 229.74269466 -94.97003715 233.73704615 -128.3125 223.5 C-162.89868211 212.16638084 -191.40815997 189.10317552 -208.14501953 156.59521484 C-224.29769937 124.10933027 -226.47746608 87.16164151 -215.0625 52.75 C-209.46645666 37.61812576 -201.58203976 24.00616207 -191.0625 11.75 C-190.35222656 10.91726562 -189.64195312 10.08453125 -188.91015625 9.2265625 C-168.25604042 -14.36777017 -139.98658352 -29.39774334 -109.0625 -34.25 C-108.22976562 -34.38148437 -107.39703125 -34.51296875 -106.5390625 -34.6484375 C-67.36181333 -39.59573518 -29.07993106 -26.08970679 0 0 Z M-153.0625 38.75 C-169.61817351 57.71830934 -176.53644685 80.78799696 -175.0625 105.75 C-172.75111678 127.82448534 -161.44662976 148.5175777 -144.56640625 162.84375 C-125.41415284 177.42456071 -102.90016455 184.0365861 -78.97802734 181.53173828 C-57.49535069 178.49631662 -37.7063005 167.54303953 -23.75 150.9375 C-9.29299993 131.6004999 -2.43419641 108.85383433 -5.52734375 84.69921875 C-8.91955188 62.48120002 -20.75425158 41.82004256 -38.82714844 28.27075195 C-74.35120763 3.01456354 -122.9191591 7.02016747 -153.0625 38.75 Z " fill="#FFFFFF" transform="translate(347.0625,159.25)"/>
<path d="M0 0 C7.66621647 5.49908814 11.42412154 13.27603901 13.25 22.375 C14.01869123 29.54945145 11.91521328 36.17266677 8.625 42.5 C2.18392942 50.29708544 -4.00240562 55.62612511 -14.1640625 56.75390625 C-24.34719058 57.24128611 -32.11035431 55.24838949 -39.90625 48.51171875 C-46.31520822 41.7361464 -48.96176488 35.18220495 -49.25 25.875 C-48.95310507 16.28816703 -46.17871096 10.13291664 -39.66796875 3.1640625 C-28.17276321 -7.55855285 -13.25434662 -8.03293735 0 0 Z " fill="#FFFFFF" transform="translate(411.75,93.625)"/>
</svg>
