<?xml version="1.0" encoding="UTF-8"?>
<svg version="1.1" xmlns="http://www.w3.org/2000/svg" width="512" height="512">
<path d="M0 0 C1.23969543 0.0556311 2.47939087 0.11126221 3.75665283 0.1685791 C12.33969147 0.55697182 20.9202036 0.98334552 29.5 1.4375 C30.58360809 1.49289948 31.66721619 1.54829895 32.78366089 1.6053772 C62.07754847 3.13870194 88.31883448 7.45202935 110 29 C130.29095592 51.65036939 133.32511879 84.97733323 134.8869648 113.92618752 C134.96366833 115.33343703 135.0423516 116.74057977 135.12281609 118.14761925 C135.95339554 132.80460296 136.16317654 147.42326887 136.16796875 162.1015625 C136.17119714 164.47634906 136.17456227 166.85113544 136.17805481 169.22592163 C136.18399687 174.17926492 136.18590001 179.1325909 136.18530273 184.0859375 C136.1852218 189.08695111 136.19212042 194.08787249 136.20581055 199.08886719 C136.28146048 227.12760676 136.16921925 255.03371715 134 283 C133.92461502 284.01138031 133.84923004 285.02276062 133.77156067 286.06478882 C132.16030358 307.41810573 127.17476593 330.05472857 115 348 C114.40251953 348.94746094 114.40251953 348.94746094 113.79296875 349.9140625 C110.57662379 354.79774347 106.54751055 358.36667972 102 362 C101.20851563 362.65097656 100.41703125 363.30195313 99.6015625 363.97265625 C81.22304391 378.29465497 60.27198743 380.35657811 37.73730469 381.76611328 C35.28961381 381.91929383 32.84231361 382.07888326 30.39550781 382.24560547 C-50.46710838 387.71967806 -131.89942633 387.02047119 -254 383 C-255.28531113 382.94637299 -255.28531113 382.94637299 -256.59658813 382.8916626 C-322.81179364 380.05970249 -322.81179364 380.05970249 -348 356 C-348.886875 355.21625 -349.77375 354.4325 -350.6875 353.625 C-370.83329972 330.75679491 -373.34758223 297.95391616 -375 269 C-375.04146684 268.28659832 -375.08293367 267.57319664 -375.12565708 266.83817673 C-375.95867642 252.18644033 -376.16317825 237.57150332 -376.16796875 222.8984375 C-376.17119714 220.52365094 -376.17456227 218.14886456 -376.17805481 215.77407837 C-376.18399687 210.82073508 -376.18590001 205.8674091 -376.18530273 200.9140625 C-376.1852218 195.91304889 -376.19212042 190.91212751 -376.20581055 185.91113281 C-376.28145941 157.87279584 -376.17264269 129.96578376 -374 102 C-373.92461502 100.99321198 -373.84923004 99.98642395 -373.77156067 98.9491272 C-372.40319992 80.9255083 -368.59475831 63.46183437 -361 47 C-360.56171875 46.02933594 -360.1234375 45.05867188 -359.671875 44.05859375 C-351.02992756 26.60086659 -334.15637827 13.65473239 -315.98828125 7.29589844 C-303.68357428 3.48240625 -290.77788018 2.79660813 -278 2 C-276.78538086 1.92040039 -275.57076172 1.84080078 -274.31933594 1.75878906 C-262.88583063 1.02693082 -251.44607126 0.4922206 -240 0 C-238.95632263 -0.04596313 -237.91264526 -0.09192627 -236.83734131 -0.13928223 C-158.04854857 -3.57989218 -78.78257985 -3.59550384 0 0 Z M-186 29 C-187.21498169 29.03264954 -188.42996338 29.06529907 -189.6817627 29.09893799 C-216.14050578 29.81162414 -242.59463277 30.71663234 -269.02267456 32.1987915 C-271.09185416 32.31399755 -273.16129296 32.42466169 -275.23098755 32.5302124 C-290.91856773 33.34518121 -306.96470358 34.27041724 -320 44 C-320.71671875 44.52464844 -321.4334375 45.04929687 -322.171875 45.58984375 C-335.72025666 56.41326894 -340.43360961 76.11133851 -342.30029297 92.66259766 C-343.00472929 99.76516896 -343.52012784 106.8792372 -344 114 C-344.08096924 115.13550293 -344.08096924 115.13550293 -344.16357422 116.29394531 C-344.53232955 121.52604962 -344.78504213 126.75947539 -345 132 C-345.04511719 133.07121094 -345.09023438 134.14242187 -345.13671875 135.24609375 C-351.19446528 226.60006145 -351.19446528 226.60006145 -337 316 C-336.44699219 317.75763672 -336.44699219 317.75763672 -335.8828125 319.55078125 C-332.19311352 329.76743049 -325.23685274 337.60549738 -315.6796875 342.76171875 C-291.99539928 353.70620762 -262.60082994 352.02930047 -237 353 C-235.85090149 353.04489563 -234.70180298 353.08979126 -233.5178833 353.13604736 C-155.46359069 356.16790292 -77.03562834 356.73463637 1 353 C2.79797028 352.91655334 2.79797028 352.91655334 4.63226318 352.8314209 C13.06910727 352.43962946 21.50361597 352.01330978 29.9375 351.5625 C31.55634094 351.47940079 31.55634094 351.47940079 33.20788574 351.3946228 C54.06641566 350.2997298 72.95688487 349.24239294 88 333 C93.74069931 325.67652582 96.57106922 316.87642699 99 308 C99.37318359 306.6701709 99.37318359 306.6701709 99.75390625 305.31347656 C102.29939017 295.41822286 102.97387702 285.53077511 103.625 275.375 C103.71788803 273.99075836 103.71788803 273.99075836 103.81265259 272.57855225 C106.93897644 225.89952746 107.31884987 178.72476272 105 132 C104.95852844 131.15590576 104.91705688 130.31181152 104.87432861 129.44213867 C103.79324369 98.26445223 103.79324369 98.26445223 97 68 C96.67757324 67.00081543 96.67757324 67.00081543 96.34863281 65.98144531 C92.32151242 53.81580956 85.49581674 46.11406058 74.25 40.0625 C63.61918527 34.7340005 51.59913404 33.5775989 39.875 32.9375 C38.61856689 32.86152588 37.36213379 32.78555176 36.06762695 32.70727539 C31.7128706 32.44909609 27.35675151 32.22164145 23 32 C22.16680237 31.95746094 21.33360474 31.91492188 20.47515869 31.87109375 C14.04660888 31.5453626 7.61732907 31.23684962 1.1875 30.9375 C0.32791687 30.89720673 -0.53166626 30.85691345 -1.41729736 30.81539917 C-30.74162363 29.45823853 -60.08630618 28.77974338 -89.4375 28.375 C-90.22959492 28.36395107 -91.02168983 28.35290215 -91.83778763 28.3415184 C-123.24460928 27.90866522 -154.59983693 28.12941429 -186 29 Z " fill="#FFFFFF" transform="translate(376,64)"/>
<path d="M0 0 C1.43401148 0.7811926 2.86875436 1.56104399 4.30419922 2.33959961 C13.31105282 7.24220157 22.24886257 12.2710415 31.14916992 17.36425781 C38.9554236 21.81709655 46.87102841 26.04533199 54.8125 30.25 C66.79457657 36.59480351 78.64100786 43.14642129 90.40795898 49.88378906 C93.56505822 51.67758816 96.74364524 53.43123717 99.92724609 55.17749023 C106.00201674 58.63339123 109.1154954 62.7246544 111.5625 69.25 C112.34823219 75.53585755 111.98428822 80.7479822 108.8125 86.25 C102.90212291 92.723856 95.90779939 96.67876761 88.125 100.5 C85.88704809 101.63088957 83.65008568 102.76373917 81.4140625 103.8984375 C80.30063477 104.46014648 79.18720703 105.02185547 78.04003906 105.60058594 C73.30948514 108.01810654 68.65234775 110.56100298 64 113.125 C52.80342378 119.27296049 41.54534326 125.30387976 30.27989197 131.32427979 C25.94834421 133.64000127 21.62182429 135.96495151 17.296875 138.29296875 C15.43996531 139.29144837 13.58295119 140.28973345 11.72589111 141.28793335 C10.00842761 142.21184442 8.29203216 143.13774006 6.57568359 144.0637207 C3.32908805 145.80778579 0.07462915 147.53516765 -3.1875 149.25 C-3.79658203 149.57053345 -4.40566406 149.89106689 -5.03320312 150.22131348 C-6.91066506 151.20382134 -8.79404991 152.17391514 -10.6796875 153.140625 C-11.79972168 153.71844727 -12.91975586 154.29626953 -14.07373047 154.89160156 C-19.72444001 157.35675351 -24.1360201 157.34234135 -29.8828125 155.28515625 C-35.70667841 152.62791131 -39.49932875 149.85917106 -42.26411533 143.9482851 C-43.27557576 140.99262784 -43.44686452 138.69586846 -43.46165466 135.57743835 C-43.47162979 134.44621552 -43.48160492 133.31499268 -43.49188232 132.14949036 C-43.492547 130.91768539 -43.49321167 129.68588043 -43.49389648 128.41674805 C-43.50222 127.11213623 -43.51054352 125.80752441 -43.51911926 124.46337891 C-43.54102524 120.89092906 -43.54985792 117.31856478 -43.55494571 113.74605536 C-43.55859404 111.51154367 -43.56483658 109.27705423 -43.5719471 107.04255104 C-43.59642847 99.23970179 -43.60949055 91.43691889 -43.61303711 83.6340332 C-43.61667094 76.37268402 -43.64655834 69.11175789 -43.68844169 61.85053796 C-43.72318833 55.60661241 -43.7385863 49.36282676 -43.73928314 43.11880523 C-43.74007451 39.39384757 -43.74874746 35.66932107 -43.77728081 31.94446373 C-43.80842087 27.78648631 -43.79938108 23.6295108 -43.78686523 19.47143555 C-43.80169952 18.24570328 -43.81653381 17.01997101 -43.83181763 15.75709534 C-43.76230591 7.6431892 -42.31171693 2.68762286 -36.7801733 -3.26427174 C-25.00744184 -14.17915888 -11.64901339 -6.478395 0 0 Z M-13.1875 29.25 C-13.1875 58.95 -13.1875 88.65 -13.1875 119.25 C-1.089601 113.23773816 -1.089601 113.23773816 10.8984375 107.0234375 C11.56059769 106.67287292 12.22275787 106.32230835 12.90498352 105.96112061 C15.00021226 104.85105874 17.09393832 103.73820221 19.1875 102.625 C20.66509003 101.84092575 22.14271096 101.05690975 23.62036133 100.27294922 C32.92689646 95.33182619 42.22015265 90.36605666 51.5 85.375 C53.07370361 84.52881104 53.07370361 84.52881104 54.67919922 83.66552734 C59.76229009 80.92383048 64.8144527 78.14397424 69.8125 75.25 C69.8125 74.59 69.8125 73.93 69.8125 73.25 C69.02415771 72.83339111 68.23581543 72.41678223 67.42358398 71.98754883 C40.9238421 57.96573808 40.9238421 57.96573808 28.1875 50.6875 C19.98588808 46.00573418 11.72789453 41.44067307 3.41168213 36.96633911 C2.14426932 36.28423624 0.87761681 35.60071861 -0.38824463 34.91574097 C-2.14838217 33.96416131 -3.91200481 33.01903655 -5.67578125 32.07421875 C-6.69196533 31.52854248 -7.70814941 30.98286621 -8.75512695 30.4206543 C-11.03795406 29.10544374 -11.03795406 29.10544374 -13.1875 29.25 Z " fill="#FFFFFF" transform="translate(234.1875,176.75)"/>
</svg>
